Coordinates
version=1
nRows=8
nColumns=63
inDegrees=yes

Units are S.I. units (second, meters, Newtons, ...)
If the header above contains a line with 'inDegrees', this indicates whether rotational values are in degrees (yes) or radians (no).

endheader
time	pelvis_tilt	pelvis_list	pelvis_rotation	pelvis_tx	pelvis_ty	pelvis_tz	hip_flexion_r	hip_adduction_r	hip_rotation_r	knee_angle_r	knee_angle_r_beta	ankle_angle_r	subtalar_angle_r	mtp_angle_r	hip_flexion_l	hip_adduction_l	hip_rotation_l	knee_angle_l	knee_angle_l_beta	ankle_angle_l	subtalar_angle_l	mtp_angle_l	L5_S1_Flex_Ext	L5_S1_Lat_Bending	L5_S1_axial_rotation	L4_L5_Flex_Ext	L4_L5_Lat_Bending	L4_L5_axial_rotation	L3_L4_Flex_Ext	L3_L4_Lat_Bending	L3_L4_axial_rotation	L2_L3_Flex_Ext	L2_L3_Lat_Bending	L2_L3_axial_rotation	L1_L2_Flex_Ext	L1_L2_Lat_Bending	L1_L2_axial_rotation	L1_T12_Flex_Ext	L1_T12_Lat_Bending	L1_T12_axial_rotation	Abs_r3	Abs_r2	Abs_r1	Abs_t1	Abs_t2	neck_flexion	neck_bending	neck_rotation	arm_flex_r	arm_add_r	arm_rot_r	elbow_flex_r	pro_sup_r	wrist_flex_r	wrist_dev_r	arm_flex_l	arm_add_l	arm_rot_l	elbow_flex_l	pro_sup_l	wrist_flex_l	wrist_dev_l
      1.86440678	     -0.50664554	     -2.67336816	     76.94315499	      0.21397108	      0.93709800	      0.54738842	     -2.20631260	      2.15751975	      2.99789879	      5.15811008	      0.09002600	     22.70013240	      6.85780030	      0.00000000	      4.96981476	     -4.77149415	    -10.16146093	     20.34105117	      0.35501832	     27.48004053	      1.79691527	      0.00000000	     -0.07305601	      0.41520452	     -2.21333146	     -0.13567231	      0.55222202	     -2.35166468	     -0.12002372	      1.00952828	     -2.35166468	     -0.08349571	      1.00952828	     -1.93666503	     -0.06783981	      0.84668506	     -1.79833181	     -0.04174420	      0.64315181	     -1.65999860	     -0.52183176	      4.69687661	    -12.30988559	      0.00000000	      0.00000000	     11.94089248	      0.26252381	     10.05803640	     -4.07225455	     -7.78212283	     -0.85310822	    129.68717100	     86.80528267	      5.27980957	      6.63292927	    -13.52816191	     -4.90622326	    -19.46562346	    136.33493889	     71.36364955	     -3.09732227	      1.06623226
      1.88135593	     -0.64938823	     -2.55284841	     76.74794228	      0.21430287	      0.93754819	      0.54828050	     -2.15933952	      1.99671778	      3.43035988	      5.27948432	      0.09214438	     22.66654937	      6.53934329	      0.00000000	      4.81822181	     -4.60210176	    -10.26489295	     20.14216819	      0.35154715	     27.24870947	      1.74506879	      0.00000000	     -0.07191478	      0.38229750	     -2.18515973	     -0.13355294	      0.50845568	     -2.32173221	     -0.11814879	      0.92951815	     -2.32173221	     -0.08219140	      0.92951815	     -1.91201476	     -0.06678007	      0.77958107	     -1.77544228	     -0.04109211	      0.59217883	     -1.63886980	     -0.51368009	      4.32462582	    -12.15320285	      0.00000000	      0.00000000	     11.17361995	      0.18752073	     10.09929492	     -2.49112060	     -7.27768765	     -2.75424918	    129.80572674	     87.29523207	      6.02639761	      4.50823948	    -12.90185242	     -5.43097588	    -20.86907790	    137.38203208	     79.25395811	     -4.57052278	     -0.86887381
      1.89830508	     -0.79178323	     -2.35046495	     76.58700615	      0.21460159	      0.93800304	      0.54908603	     -2.14935224	      1.81010986	      3.53852854	      5.51284660	      0.09621732	     22.79397614	      6.56658039	      0.00000000	      4.63176447	     -4.41709579	    -10.33297648	     20.02646804	      0.34952780	     27.07738540	      1.59747456	      0.00000000	     -0.07948125	      0.34878320	     -2.21069732	     -0.14760463	      0.46388166	     -2.34886590	     -0.13057975	      0.84803147	     -2.34886590	     -0.09083912	      0.84803147	     -1.93436016	     -0.07380629	      0.71123870	     -1.79619157	     -0.04541559	      0.54026518	     -1.65802299	     -0.56772662	      3.94550531	    -12.29523530	      0.00000000	      0.00000000	     10.33001596	      0.07686221	     10.60267495	     -0.94532346	     -6.89189789	     -4.70824509	    129.18321935	     87.49115688	      6.38209364	      2.06314895	    -12.53010201	     -5.82459854	    -22.69457433	    138.11389294	     83.21876939	     -4.99132672	     -3.42649407
      1.91525424	     -0.67266118	     -2.27576944	     76.56812601	      0.21455305	      0.93813665	      0.54926143	     -2.16575661	      1.91129700	      3.44572930	      5.64828781	      0.09858122	     22.84221318	      6.68437433	      0.00000000	      4.58361356	     -4.52372751	    -10.29033949	     20.07460589	      0.35036797	     27.11577536	      1.44582042	      0.00000000	     -0.07425135	      0.35123222	     -2.28909177	     -0.13789218	      0.46713885	     -2.43216001	     -0.12198754	      0.85398602	     -2.43216001	     -0.08486186	      0.85398602	     -2.00295530	     -0.06894980	      0.71623275	     -1.85988706	     -0.04242722	      0.54405871	     -1.71681883	     -0.53036994	      3.97320913	    -12.73124170	      0.00000000	      0.00000000	      9.58224528	     -0.01793314	     11.35444929	      0.25665627	     -6.67493511	     -6.78975978	    128.35487088	     87.66592955	      6.05306934	      0.43750015	    -12.59582634	     -5.84035260	    -24.54235023	    138.84802399	     85.91704820	     -5.98260523	     -5.61993787
      1.93220339	     -0.56028889	     -2.13685298	     76.52494168	      0.21441162	      0.93805328	      0.54898464	     -2.29295684	      1.97817698	      3.43866831	      5.77952174	      0.10087168	     22.95707448	      6.68767872	      0.00000000	      4.45397763	     -4.60953927	    -10.32923611	     20.14559960	      0.35160704	     27.28759407	      1.35325415	      0.00000000	     -0.07719722	      0.34711952	     -2.32372762	     -0.14336296	      0.46166896	     -2.46896060	     -0.12682732	      0.84398640	     -2.46896060	     -0.08822871	      0.84398640	     -2.03326167	     -0.07168534	      0.70784612	     -1.88802869	     -0.04411049	      0.53768813	     -1.74279571	     -0.55141204	      3.92668541	    -12.92387590	      0.00000000	      0.00000000	      8.98228636	     -0.15386880	     11.55099220	      0.88925900	     -6.34785802	     -9.31973689	    127.70354665	     87.64245800	      5.40866180	      0.34171022	    -12.72989054	     -5.69775470	    -26.03082782	    139.47845571	     86.05745769	     -6.40258476	     -6.32825236
      1.94915254	     -0.48663803	     -2.00692899	     76.62106372	      0.21399439	      0.93798349	      0.54851828	     -2.38652646	      2.00689472	      3.24448620	      6.00841698	      0.10486666	     23.09706915	      6.66004024	      0.00000000	      4.34992784	     -4.64870078	    -10.32698349	     20.20438252	      0.35263300	     27.40258608	      1.37661654	      0.00000000	     -0.08236718	      0.34472150	     -2.52667078	     -0.15296410	      0.45847959	     -2.68458770	     -0.13532104	      0.83815584	     -2.68458770	     -0.09413745	      0.83815584	     -2.21083693	     -0.07648617	      0.70295607	     -2.05292001	     -0.04706461	      0.53397360	     -1.89500308	     -0.58834055	      3.89955850	    -14.05258487	      0.00000000	      0.00000000	      8.19519102	      0.22215796	     13.27127770	      1.74241711	     -6.14562290	    -10.89125789	    126.69558107	     88.19447016	      4.62329041	      1.31897899	    -13.58594432	     -5.41651423	    -27.88225502	    139.40286472	     87.04713155	     -7.81899518	    -10.64627068
      1.96610169	     -0.30772783	     -1.95524722	     76.79280308	      0.21325499	      0.93772068	      0.54761285	     -2.58158112	      2.14013177	      3.01957956	      6.01508775	      0.10498309	     23.05138560	      6.58629494	      0.00000000	      4.26379619	     -4.78901136	    -10.21703117	     20.24711219	      0.35337877	     27.62989246	      1.49410379	      0.00000000	     -0.08817881	      0.35897280	     -2.61782269	     -0.16375688	      0.47743382	     -2.78143661	     -0.14486897	      0.87280646	     -2.78143661	     -0.10077957	      0.87280646	     -2.29059486	     -0.08188285	      0.73201732	     -2.12698094	     -0.05038537	      0.55604886	     -1.96336702	     -0.62985245	      4.06077206	    -14.55954447	      0.00000000	      0.00000000	      7.72367970	      0.95180615	     14.73266833	      1.91771999	     -5.83303806	    -13.05906520	    126.42928297	     88.45949387	      3.56128207	      3.78633982	    -14.10463839	     -5.09589300	    -28.44475554	    138.88043048	     86.90733224	     -9.23106380	    -13.97932390
      1.98305085	     -0.21431036	     -1.90937499	     76.79383985	      0.21257933	      0.93739637	      0.54649710	     -2.72750399	      2.17132653	      2.78551230	      6.12163206	      0.10684264	     23.04627529	      6.50819746	      0.00000000	      4.13688453	     -4.82696010	    -10.21011942	     20.27290288	      0.35382890	     27.87331990	      1.49977552	      0.00000000	     -0.09469901	      0.36348406	     -2.62805932	     -0.17586553	      0.48343381	     -2.79231303	     -0.15558101	      0.88377515	     -2.79231303	     -0.10823150	      0.88377515	     -2.29955191	     -0.08793750	      0.74121670	     -2.13529820	     -0.05411102	      0.56303682	     -1.97104449	     -0.67642557	      4.11180444	    -14.61647754	      0.00000000	      0.00000000	      7.49588575	      1.74588619	     15.98806588	      1.78671024	     -5.73017964	    -15.13225217	    126.58254119	     88.62074232	      2.56122368	      7.40252316	    -14.47217753	     -4.72424068	    -28.16789852	    137.90831786	     86.95140164	    -10.70867172	    -17.39800941
